<svg width="100" height="100" viewBox="0 0 100 100" fill="none" xmlns="http://www.w3.org/2000/svg">
<path d="M50.0001 0C31.6205 0 16.6667 14.9537 16.6667 33.3334C16.6667 38.851 18.0462 44.3217 20.6687 49.174L48.1773 98.9258C48.5435 99.5891 49.2413 100 50.0001 100C50.7589 100 51.4568 99.5891 51.823 98.9258L79.3417 49.1576C81.954 44.3217 83.3335 38.8508 83.3335 33.3332C83.3335 14.9537 68.3798 0 50.0001 0ZM50.0001 50C40.8103 50 33.3335 42.5232 33.3335 33.3334C33.3335 24.1436 40.8103 16.6668 50.0001 16.6668C59.19 16.6668 66.6667 24.1436 66.6667 33.3334C66.6667 42.5232 59.19 50 50.0001 50Z" fill="#7E7E7E"/>
</svg>
